<?xml version="1.0" encoding="UTF-8" standalone="no"?>
<!DOCTYPE svg PUBLIC "-//W3C//DTD SVG 1.1//EN"
 "http://www.w3.org/Graphics/SVG/1.1/DTD/svg11.dtd">
<!-- Generated by graphviz version 8.1.0 (20230707.0739)
 -->
<!-- Pages: 1 -->
<svg width="452pt" height="395pt"
 viewBox="0.00 0.00 451.50 395.00" xmlns="http://www.w3.org/2000/svg" xmlns:xlink="http://www.w3.org/1999/xlink">
<g id="graph0" class="graph" transform="scale(1 1) rotate(0) translate(4 391)">
<polygon fill="white" stroke="none" points="-4,4 -4,-391 447.5,-391 447.5,4 -4,4"/>
<text text-anchor="middle" x="221.75" y="-354.5" font-family="Times New Roman,serif" font-size="30.00">dependencies&#45;graph&#45;synrgychapter7</text>
<text text-anchor="middle" x="221.75" y="-320" font-family="Times New Roman,serif" font-size="30.00"> </text>
<!-- :app -->
<g id="node1" class="node">
<title>:app</title>
<ellipse fill="#eeeeee" stroke="black" cx="171.03" cy="-292" rx="27" ry="18"/>
<text text-anchor="middle" x="171.03" y="-286.57" font-family="Times New Roman,serif" font-size="14.00">:app</text>
</g>
<!-- :presentation -->
<g id="node6" class="node">
<title>:presentation</title>
<ellipse fill="#eeeeee" stroke="black" cx="171.03" cy="-155" rx="57.55" ry="18"/>
<text text-anchor="middle" x="171.03" y="-149.57" font-family="Times New Roman,serif" font-size="14.00">:presentation</text>
</g>
<!-- :app&#45;&gt;:presentation -->
<g id="edge1" class="edge">
<title>:app&#45;&gt;:presentation</title>
<path fill="none" stroke="black" d="M171.03,-273.63C171.03,-250.95 171.03,-210.96 171.03,-183.98"/>
<polygon fill="black" stroke="black" points="174.53,-184.31 171.03,-174.31 167.53,-184.31 174.53,-184.31"/>
</g>
<!-- :common -->
<g id="node2" class="node">
<title>:common</title>
<ellipse fill="#eeeeee" stroke="black" cx="171.03" cy="-18" rx="45.57" ry="18"/>
<text text-anchor="middle" x="171.03" y="-12.57" font-family="Times New Roman,serif" font-size="14.00">:common</text>
</g>
<!-- :data -->
<g id="node3" class="node">
<title>:data</title>
<ellipse fill="#eeeeee" stroke="black" cx="275.03" cy="-155" rx="28.11" ry="18"/>
<text text-anchor="middle" x="275.03" y="-149.57" font-family="Times New Roman,serif" font-size="14.00">:data</text>
</g>
<!-- :data&#45;&gt;:common -->
<g id="edge5" class="edge">
<title>:data&#45;&gt;:common</title>
<path fill="none" stroke="black" stroke-dasharray="1,5" d="M262.89,-138.25C245.08,-115.13 211.67,-71.76 190.43,-44.19"/>
<polygon fill="black" stroke="black" points="192.61,-42.28 183.73,-36.49 187.06,-46.55 192.61,-42.28"/>
</g>
<!-- :domain -->
<g id="node5" class="node">
<title>:domain</title>
<ellipse fill="#eeeeee" stroke="black" cx="275.03" cy="-18" rx="40.09" ry="18"/>
<text text-anchor="middle" x="275.03" y="-12.57" font-family="Times New Roman,serif" font-size="14.00">:domain</text>
</g>
<!-- :data&#45;&gt;:domain -->
<g id="edge4" class="edge">
<title>:data&#45;&gt;:domain</title>
<path fill="none" stroke="black" stroke-dasharray="1,5" d="M275.03,-136.63C275.03,-113.95 275.03,-73.96 275.03,-46.98"/>
<polygon fill="black" stroke="black" points="278.53,-47.31 275.03,-37.31 271.53,-47.31 278.53,-47.31"/>
</g>
<!-- :di -->
<g id="node4" class="node">
<title>:di</title>
<ellipse fill="#eeeeee" stroke="black" cx="303.03" cy="-292" rx="27" ry="18"/>
<text text-anchor="middle" x="303.03" y="-286.57" font-family="Times New Roman,serif" font-size="14.00">:di</text>
</g>
<!-- :di&#45;&gt;:data -->
<g id="edge6" class="edge">
<title>:di&#45;&gt;:data</title>
<path fill="none" stroke="black" stroke-dasharray="1,5" d="M299.48,-273.9C294.77,-251.18 286.38,-210.76 280.76,-183.66"/>
<polygon fill="black" stroke="black" points="284,-183.04 278.54,-173.96 277.15,-184.46 284,-183.04"/>
</g>
<!-- :di&#45;&gt;:domain -->
<g id="edge7" class="edge">
<title>:di&#45;&gt;:domain</title>
<path fill="none" stroke="black" stroke-dasharray="1,5" d="M306.37,-273.8C311.4,-245.22 319.56,-186.24 312.03,-137 307.12,-104.98 295.15,-69.71 286.14,-46.15"/>
<polygon fill="black" stroke="black" points="289.15,-45.23 282.24,-37.2 282.63,-47.79 289.15,-45.23"/>
</g>
<!-- :presentation&#45;&gt;:common -->
<g id="edge3" class="edge">
<title>:presentation&#45;&gt;:common</title>
<path fill="none" stroke="black" stroke-dasharray="1,5" d="M171.03,-136.63C171.03,-113.95 171.03,-73.96 171.03,-46.98"/>
<polygon fill="black" stroke="black" points="174.53,-47.31 171.03,-37.31 167.53,-47.31 174.53,-47.31"/>
</g>
<!-- :presentation&#45;&gt;:domain -->
<g id="edge2" class="edge">
<title>:presentation&#45;&gt;:domain</title>
<path fill="none" stroke="black" stroke-dasharray="1,5" d="M183.99,-137.18C202.09,-113.68 235.06,-70.88 255.96,-43.74"/>
<polygon fill="black" stroke="black" points="259.22,-46.25 262.55,-36.19 253.68,-41.98 259.22,-46.25"/>
</g>
</g>
</svg>
